<svg aria-hidden="true" style="position:absolute;width:0;height:0;overflow:hidden" xmlns="http://www.w3.org/2000/svg"><defs><symbol id="icon-copyright" viewBox="0 0 32 32"><path d="m23.296 12.216-3.426.814c-.743-1.948-1.984-2.928-3.726-2.928-1.335 0-2.386.514-3.142 1.549-.764 1.027-1.142 2.407-1.142 4.12 0 1.348.156 2.493.477 3.421s.793 1.619 1.413 2.091c.621.464 1.364.699 2.227.699 1.922 0 3.233-1.199 3.935-3.598l3.385 1.15c-1.113 3.627-3.583 5.442-7.403 5.442a7.605 7.605 0 0 1-3.82-1.007c-1.179-.665-2.12-1.684-2.834-3.048-.707-1.372-1.064-2.999-1.064-4.897 0-1.771.329-3.319.986-4.654a7.334 7.334 0 0 1 2.814-3.106c1.22-.735 2.649-1.106 4.297-1.106 3.455-.005 5.797 1.682 7.025 5.059zM16.021 0c2.185 0 4.256.407 6.203 1.22a16.008 16.008 0 0 1 5.14 3.455 16.004 16.004 0 0 1 3.455 5.139c.814 1.948 1.22 4.013 1.22 6.203 0 2.871-.722 5.541-2.164 7.997a15.999 15.999 0 0 1-5.846 5.841c-2.456 1.429-5.126 2.141-8.01 2.141-2.928 0-5.619-.714-8.06-2.136a15.759 15.759 0 0 1-5.817-5.825C.716 21.581.001 18.903.001 16.019c0-2.9.714-5.583 2.141-8.039a15.814 15.814 0 0 1 5.841-5.841c2.456-1.426 5.14-2.141 8.039-2.141zm0 3.142c-2.357 0-4.519.579-6.475 1.734a12.95 12.95 0 0 0-4.662 4.691c-1.15 1.977-1.729 4.128-1.729 6.454 0 2.342.579 4.49 1.729 6.446a12.84 12.84 0 0 0 4.67 4.662c1.971 1.15 4.12 1.729 6.469 1.729 2.329 0 4.477-.571 6.462-1.713a12.709 12.709 0 0 0 4.691-4.654c1.15-1.956 1.729-4.112 1.729-6.469 0-2.313-.579-4.462-1.734-6.441a12.902 12.902 0 0 0-4.699-4.704c-1.974-1.155-4.123-1.734-6.451-1.734z"/></symbol><symbol id="icon-arrow-left" viewBox="0 0 32 32"><path stroke-linejoin="round" stroke-linecap="round" stroke-width="2.667" d="M25.333 16H6.666M16 25.334l-9.333-9.333L16 6.668"/></symbol><symbol id="icon-arrow-right" viewBox="0 0 32 32"><path stroke-linejoin="round" stroke-linecap="round" stroke-width="2.667" d="M6.667 16h18.667M16 25.334l9.333-9.333L16 6.668"/></symbol><symbol id="icon-close" viewBox="0 0 32 32"><path stroke-width="2.133" d="m8.533 8.533 14.933 14.933M8.533 23.467 23.466 8.534"/></symbol><symbol id="icon-dots" viewBox="0 0 32 32"><path d="M5.175 12.8c.85 0 1.506.244 1.969.731.463.475.694 1.075.694 1.8 0 .712-.231 1.306-.694 1.781-.463.462-1.119.694-1.969.694-.813 0-1.456-.231-1.931-.694s-.712-1.056-.712-1.781c0-.725.231-1.325.694-1.8.462-.488 1.113-.731 1.95-.731zm10.725 0c.85 0 1.506.244 1.969.731.463.475.694 1.075.694 1.8 0 .712-.231 1.306-.694 1.781-.462.462-1.119.694-1.969.694-.813 0-1.456-.231-1.931-.694s-.712-1.056-.712-1.781c0-.725.231-1.325.694-1.8.463-.488 1.112-.731 1.95-.731zm10.725 0c.85 0 1.506.244 1.969.731.462.475.694 1.075.694 1.8 0 .712-.231 1.306-.694 1.781-.462.462-1.119.694-1.969.694-.812 0-1.456-.231-1.931-.694s-.712-1.056-.712-1.781c0-.725.231-1.325.694-1.8.462-.488 1.112-.731 1.95-.731z"/></symbol><symbol id="icon-film" viewBox="0 0 32 32"><path stroke-linejoin="round" stroke-linecap="round" stroke-width="2.667" d="M26.427 2.667H5.574a2.907 2.907 0 0 0-2.907 2.907v20.853a2.907 2.907 0 0 0 2.907 2.907h20.853a2.907 2.907 0 0 0 2.907-2.907V5.574a2.907 2.907 0 0 0-2.907-2.907zM9.333 2.667v26.667M22.667 2.667v26.667M2.667 16h26.667M2.667 9.333h6.667M2.667 22.667h6.667M22.667 22.667h6.667M22.667 9.333h6.667"/></symbol><symbol id="icon-heart" viewBox="0 0 32 32"><path d="m16 30.583-2.24-2.24C5.44 20.983 0 16.023 0 9.943c0-4.96 3.84-8.8 8.8-8.8 2.72 0 5.44 1.28 7.2 3.36 1.76-2.08 4.48-3.36 7.2-3.36 4.96 0 8.8 3.84 8.8 8.8 0 6.08-5.44 11.04-13.76 18.4L16 30.583z"/></symbol><symbol id="icon-search" viewBox="0 0 32 32"><path stroke-linejoin="round" stroke-linecap="round" stroke-width="2.667" d="M14.667 25.333c5.891 0 10.667-4.776 10.667-10.667S20.558 3.999 14.667 3.999 4 8.775 4 14.666s4.776 10.667 10.667 10.667zM28 28.001l-5.8-5.8"/></symbol></defs></svg>